<svg xmlns="http://www.w3.org/2000/svg" viewBox="0 0 24 24" fill="none" stroke="currentColor" stroke-width="1.5" stroke-linecap="round" stroke-linejoin="round">
  <!-- Brain outline -->
  <path d="M12 2C9.5 2 7.5 3.5 7 5.5C5.5 5.5 4 7 4 9C4 10.5 4.5 11.5 5.5 12.5C4.5 13.5 4 15 4 16.5C4 18.5 5.5 20 7.5 20C8 21.5 9.5 22 12 22C14.5 22 16 21.5 16.5 20C18.5 20 20 18.5 20 16.5C20 15 19.5 13.5 18.5 12.5C19.5 11.5 20 10.5 20 9C20 7 18.5 5.5 17 5.5C16.5 3.5 14.5 2 12 2Z"/>
  <!-- Center line -->
  <path d="M12 2V22"/>
  <!-- Neural connections left -->
  <path d="M12 6L8 8"/>
  <path d="M12 10L7 12"/>
  <path d="M12 16L8 17"/>
  <!-- Neural connections right -->
  <path d="M12 6L16 8"/>
  <path d="M12 10L17 12"/>
  <path d="M12 16L16 17"/>
  <!-- Synapses -->
  <circle cx="8" cy="8" r="1" fill="currentColor"/>
  <circle cx="7" cy="12" r="1" fill="currentColor"/>
  <circle cx="8" cy="17" r="1" fill="currentColor"/>
  <circle cx="16" cy="8" r="1" fill="currentColor"/>
  <circle cx="17" cy="12" r="1" fill="currentColor"/>
  <circle cx="16" cy="17" r="1" fill="currentColor"/>
</svg>
